<svg width="50" height="50" viewBox="0 0 50 50" fill="none" xmlns="http://www.w3.org/2000/svg">
<path d="M15.8689 18.15L22.546 13.3C23.2955 12.7515 24.2072 12.4698 25.1355 12.5C26.2679 12.5282 27.3632 12.9086 28.2694 13.5881C29.1756 14.2676 29.8475 15.2126 30.1918 16.2917C30.5793 17.5063 30.9335 18.3271 31.2543 18.7542C32.2237 20.0475 33.4812 21.0971 34.927 21.8196C36.3728 22.5422 37.9672 22.9178 39.5835 22.9167V27.0833C37.432 27.0857 35.3068 26.611 33.3608 25.6935C31.4148 24.7759 29.6964 23.4384 28.3293 21.7771L26.8772 30.0167L31.171 33.6208L35.8022 46.3458L31.8855 47.7708L27.6355 36.0958L20.573 30.1688C19.9935 29.7007 19.55 29.0859 19.2887 28.3882C19.0275 27.6906 18.958 26.9357 19.0876 26.2021L20.148 20.1917L18.7376 21.2167L14.3064 27.3167L10.9355 24.8667L15.8335 18.125L15.8689 18.15ZM28.1251 11.4583C27.0201 11.4583 25.9603 11.0193 25.1789 10.2379C24.3975 9.45654 23.9585 8.39674 23.9585 7.29167C23.9585 6.1866 24.3975 5.12679 25.1789 4.34539C25.9603 3.56399 27.0201 3.125 28.1251 3.125C29.2302 3.125 30.29 3.56399 31.0714 4.34539C31.8528 5.12679 32.2918 6.1866 32.2918 7.29167C32.2918 8.39674 31.8528 9.45654 31.0714 10.2379C30.29 11.0193 29.2302 11.4583 28.1251 11.4583ZM21.9335 38.9188L15.2376 46.8979L12.046 44.2208L18.246 36.8333L19.8001 32.2917L23.5314 35.4167L21.9335 38.9188Z" fill="black"/>
</svg>
